<mxfile host="app.diagrams.net" modified="2023-05-01T18:19:53.242Z" agent="Mozilla/5.0 (Windows NT 10.0; Win64; x64) AppleWebKit/537.36 (KHTML, like Gecko) Chrome/112.0.0.0 Safari/537.36" etag="Hr1OWvZ1PsDU5YyXbCTG" version="21.2.3" type="github">
  <diagram name="페이지-1" id="jo04tA77AV1EWePdSTTo">
    <mxGraphModel dx="2273" dy="541" grid="1" gridSize="10" guides="1" tooltips="1" connect="1" arrows="1" fold="1" page="1" pageScale="1" pageWidth="827" pageHeight="1169" math="0" shadow="0">
      <root>
        <mxCell id="0" />
        <mxCell id="1" parent="0" />
        <mxCell id="zbjkyzTDcAnJZQnpiGPw-232" value="" style="rounded=0;whiteSpace=wrap;html=1;fillColor=none;strokeColor=#0000ff;" vertex="1" parent="1">
          <mxGeometry x="-110" y="1170" width="670" height="330" as="geometry" />
        </mxCell>
        <mxCell id="zbjkyzTDcAnJZQnpiGPw-210" value="Training Data Management" style="shape=note;whiteSpace=wrap;html=1;backgroundOutline=1;darkOpacity=0.05;size=18;fontSize=13;" vertex="1" parent="1">
          <mxGeometry x="1080" y="1107.75" width="221.5" height="30" as="geometry" />
        </mxCell>
        <mxCell id="zbjkyzTDcAnJZQnpiGPw-211" value="Manager" style="shape=umlActor;verticalLabelPosition=bottom;verticalAlign=top;html=1;outlineConnect=0;fontSize=13;" vertex="1" parent="1">
          <mxGeometry x="840" y="1237.75" width="30" height="60" as="geometry" />
        </mxCell>
        <mxCell id="zbjkyzTDcAnJZQnpiGPw-212" value="TDM01. Acquire data" style="ellipse;whiteSpace=wrap;html=1;fontSize=13;" vertex="1" parent="1">
          <mxGeometry x="971" y="1160.25" width="160" height="50" as="geometry" />
        </mxCell>
        <mxCell id="zbjkyzTDcAnJZQnpiGPw-213" value="TDM02. Acquire Sensor data" style="ellipse;whiteSpace=wrap;html=1;fontSize=13;" vertex="1" parent="1">
          <mxGeometry x="1239.25" y="1157.75" width="160" height="50" as="geometry" />
        </mxCell>
        <mxCell id="zbjkyzTDcAnJZQnpiGPw-214" value="Sensor" style="shape=umlActor;verticalLabelPosition=bottom;verticalAlign=top;html=1;outlineConnect=0;fontSize=13;" vertex="1" parent="1">
          <mxGeometry x="1429.25" y="1144" width="30" height="60" as="geometry" />
        </mxCell>
        <mxCell id="zbjkyzTDcAnJZQnpiGPw-215" value="Camera" style="shape=umlActor;verticalLabelPosition=bottom;verticalAlign=top;html=1;outlineConnect=0;fontSize=13;" vertex="1" parent="1">
          <mxGeometry x="1429.25" y="1274" width="30" height="60" as="geometry" />
        </mxCell>
        <mxCell id="zbjkyzTDcAnJZQnpiGPw-216" value="" style="endArrow=none;html=1;rounded=0;exitX=0;exitY=0.3333333333333333;exitDx=0;exitDy=0;exitPerimeter=0;entryX=1;entryY=0.5;entryDx=0;entryDy=0;fontSize=13;" edge="1" parent="1" source="zbjkyzTDcAnJZQnpiGPw-214" target="zbjkyzTDcAnJZQnpiGPw-213">
          <mxGeometry width="50" height="50" relative="1" as="geometry">
            <mxPoint x="1349.25" y="1512.75" as="sourcePoint" />
            <mxPoint x="1539.25" y="1232.75" as="targetPoint" />
          </mxGeometry>
        </mxCell>
        <mxCell id="zbjkyzTDcAnJZQnpiGPw-217" value="" style="endArrow=none;html=1;rounded=0;exitX=0;exitY=0.3333333333333333;exitDx=0;exitDy=0;exitPerimeter=0;entryX=1;entryY=0.5;entryDx=0;entryDy=0;fontSize=13;" edge="1" parent="1" source="zbjkyzTDcAnJZQnpiGPw-215" target="zbjkyzTDcAnJZQnpiGPw-218">
          <mxGeometry width="50" height="50" relative="1" as="geometry">
            <mxPoint x="1350.25" y="1282.75" as="sourcePoint" />
            <mxPoint x="1629.25" y="1332.75" as="targetPoint" />
          </mxGeometry>
        </mxCell>
        <mxCell id="zbjkyzTDcAnJZQnpiGPw-218" value="TDM03. Acquire Camera data" style="ellipse;whiteSpace=wrap;html=1;fontSize=13;" vertex="1" parent="1">
          <mxGeometry x="1239.25" y="1257.75" width="160" height="50" as="geometry" />
        </mxCell>
        <mxCell id="zbjkyzTDcAnJZQnpiGPw-219" value="&amp;lt;&amp;lt;extend&amp;gt;&amp;gt;" style="endArrow=open;endSize=12;endFill=0;html=1;rounded=0;exitX=0;exitY=0.5;exitDx=0;exitDy=0;entryX=1;entryY=0.5;entryDx=0;entryDy=0;fontSize=13;" edge="1" parent="1" source="zbjkyzTDcAnJZQnpiGPw-213" target="zbjkyzTDcAnJZQnpiGPw-212">
          <mxGeometry width="160" relative="1" as="geometry">
            <mxPoint x="1289.25" y="1470.75" as="sourcePoint" />
            <mxPoint x="1161.25" y="1467.75" as="targetPoint" />
          </mxGeometry>
        </mxCell>
        <mxCell id="zbjkyzTDcAnJZQnpiGPw-220" value="&amp;lt;&amp;lt;extend&amp;gt;&amp;gt;" style="endArrow=open;endSize=12;endFill=0;html=1;rounded=0;exitX=0;exitY=0.5;exitDx=0;exitDy=0;entryX=1;entryY=0.5;entryDx=0;entryDy=0;fontSize=13;" edge="1" parent="1" source="zbjkyzTDcAnJZQnpiGPw-218" target="zbjkyzTDcAnJZQnpiGPw-212">
          <mxGeometry width="160" relative="1" as="geometry">
            <mxPoint x="1289.25" y="1470.75" as="sourcePoint" />
            <mxPoint x="1161.25" y="1467.75" as="targetPoint" />
          </mxGeometry>
        </mxCell>
        <mxCell id="zbjkyzTDcAnJZQnpiGPw-221" value="TDM04. Detect anomaly occurence manually" style="ellipse;whiteSpace=wrap;html=1;fontSize=13;" vertex="1" parent="1">
          <mxGeometry x="971" y="1237.75" width="160" height="50" as="geometry" />
        </mxCell>
        <mxCell id="zbjkyzTDcAnJZQnpiGPw-222" value="TDM05. Make datasets &lt;br style=&quot;font-size: 13px;&quot;&gt;for training" style="ellipse;whiteSpace=wrap;html=1;fontSize=13;" vertex="1" parent="1">
          <mxGeometry x="971" y="1305.25" width="160" height="50" as="geometry" />
        </mxCell>
        <mxCell id="zbjkyzTDcAnJZQnpiGPw-223" value="" style="endArrow=none;html=1;rounded=0;exitX=1;exitY=0.3333333333333333;exitDx=0;exitDy=0;exitPerimeter=0;entryX=0;entryY=0.5;entryDx=0;entryDy=0;fontSize=13;" edge="1" parent="1" source="zbjkyzTDcAnJZQnpiGPw-211" target="zbjkyzTDcAnJZQnpiGPw-212">
          <mxGeometry width="50" height="50" relative="1" as="geometry">
            <mxPoint x="280" y="1465.75" as="sourcePoint" />
            <mxPoint x="350" y="1390.75" as="targetPoint" />
          </mxGeometry>
        </mxCell>
        <mxCell id="zbjkyzTDcAnJZQnpiGPw-224" value="" style="endArrow=none;html=1;rounded=0;exitX=1;exitY=0.3333333333333333;exitDx=0;exitDy=0;exitPerimeter=0;entryX=0;entryY=0.5;entryDx=0;entryDy=0;fontSize=13;" edge="1" parent="1" source="zbjkyzTDcAnJZQnpiGPw-211" target="zbjkyzTDcAnJZQnpiGPw-221">
          <mxGeometry width="50" height="50" relative="1" as="geometry">
            <mxPoint x="880" y="1267.75" as="sourcePoint" />
            <mxPoint x="981" y="1195.75" as="targetPoint" />
          </mxGeometry>
        </mxCell>
        <mxCell id="zbjkyzTDcAnJZQnpiGPw-225" value="" style="endArrow=none;html=1;rounded=0;exitX=1;exitY=0.3333333333333333;exitDx=0;exitDy=0;exitPerimeter=0;entryX=0;entryY=0.5;entryDx=0;entryDy=0;fontSize=13;" edge="1" parent="1" source="zbjkyzTDcAnJZQnpiGPw-211" target="zbjkyzTDcAnJZQnpiGPw-222">
          <mxGeometry width="50" height="50" relative="1" as="geometry">
            <mxPoint x="880" y="1267.75" as="sourcePoint" />
            <mxPoint x="981" y="1282.75" as="targetPoint" />
          </mxGeometry>
        </mxCell>
        <mxCell id="zbjkyzTDcAnJZQnpiGPw-226" value="TDM06. Feature selection using RFECV" style="ellipse;whiteSpace=wrap;html=1;fontSize=13;" vertex="1" parent="1">
          <mxGeometry x="971" y="1370" width="160" height="50" as="geometry" />
        </mxCell>
        <mxCell id="zbjkyzTDcAnJZQnpiGPw-227" value="" style="endArrow=none;html=1;rounded=0;entryX=0;entryY=0.5;entryDx=0;entryDy=0;fontSize=13;" edge="1" parent="1" target="zbjkyzTDcAnJZQnpiGPw-226">
          <mxGeometry width="50" height="50" relative="1" as="geometry">
            <mxPoint x="870" y="1260" as="sourcePoint" />
            <mxPoint x="981" y="1340" as="targetPoint" />
          </mxGeometry>
        </mxCell>
        <mxCell id="zbjkyzTDcAnJZQnpiGPw-228" value="TDM07. Training feature" style="ellipse;whiteSpace=wrap;html=1;fontSize=13;" vertex="1" parent="1">
          <mxGeometry x="1239.25" y="1370" width="160" height="50" as="geometry" />
        </mxCell>
        <mxCell id="zbjkyzTDcAnJZQnpiGPw-229" value="&amp;lt;&amp;lt;extend&amp;gt;&amp;gt;" style="endArrow=open;endSize=12;endFill=0;html=1;rounded=0;exitX=0;exitY=0.5;exitDx=0;exitDy=0;entryX=1;entryY=0.5;entryDx=0;entryDy=0;fontSize=13;" edge="1" parent="1" source="zbjkyzTDcAnJZQnpiGPw-228" target="zbjkyzTDcAnJZQnpiGPw-226">
          <mxGeometry width="160" relative="1" as="geometry">
            <mxPoint x="1249" y="1293" as="sourcePoint" />
            <mxPoint x="1141" y="1195" as="targetPoint" />
          </mxGeometry>
        </mxCell>
        <mxCell id="zbjkyzTDcAnJZQnpiGPw-233" value="TDM03. Acquire Camera data" style="ellipse;whiteSpace=wrap;html=1;fontSize=13;" vertex="1" parent="1">
          <mxGeometry x="310" y="1307.5" width="160" height="50" as="geometry" />
        </mxCell>
        <mxCell id="zbjkyzTDcAnJZQnpiGPw-234" value="Camera" style="shape=umlActor;verticalLabelPosition=bottom;verticalAlign=top;html=1;outlineConnect=0;fontSize=13;" vertex="1" parent="1">
          <mxGeometry x="501.62" y="1320" width="30" height="60" as="geometry" />
        </mxCell>
        <mxCell id="zbjkyzTDcAnJZQnpiGPw-235" value="" style="endArrow=none;html=1;rounded=0;exitX=0;exitY=0.3333333333333333;exitDx=0;exitDy=0;exitPerimeter=0;entryX=1;entryY=0.5;entryDx=0;entryDy=0;fontSize=13;" edge="1" parent="1" source="zbjkyzTDcAnJZQnpiGPw-234" target="zbjkyzTDcAnJZQnpiGPw-233">
          <mxGeometry width="50" height="50" relative="1" as="geometry">
            <mxPoint x="422.62" y="1335" as="sourcePoint" />
            <mxPoint x="701.62" y="1385" as="targetPoint" />
          </mxGeometry>
        </mxCell>
        <mxCell id="zbjkyzTDcAnJZQnpiGPw-237" value="Manager" style="shape=umlActor;verticalLabelPosition=bottom;verticalAlign=top;html=1;outlineConnect=0;fontSize=13;" vertex="1" parent="1">
          <mxGeometry x="-87.63" y="1290" width="30" height="60" as="geometry" />
        </mxCell>
        <mxCell id="zbjkyzTDcAnJZQnpiGPw-238" value="TDM01. Acquire data" style="ellipse;whiteSpace=wrap;html=1;fontSize=13;" vertex="1" parent="1">
          <mxGeometry x="43.370000000000005" y="1212.5" width="160" height="50" as="geometry" />
        </mxCell>
        <mxCell id="zbjkyzTDcAnJZQnpiGPw-239" value="TDM02. Acquire Sensor data" style="ellipse;whiteSpace=wrap;html=1;fontSize=13;" vertex="1" parent="1">
          <mxGeometry x="310" y="1212.5" width="160" height="50" as="geometry" />
        </mxCell>
        <mxCell id="zbjkyzTDcAnJZQnpiGPw-240" value="Sensor" style="shape=umlActor;verticalLabelPosition=bottom;verticalAlign=top;html=1;outlineConnect=0;fontSize=13;" vertex="1" parent="1">
          <mxGeometry x="501.62" y="1220" width="30" height="60" as="geometry" />
        </mxCell>
        <mxCell id="zbjkyzTDcAnJZQnpiGPw-241" value="" style="endArrow=none;html=1;rounded=0;exitX=0;exitY=0.3333333333333333;exitDx=0;exitDy=0;exitPerimeter=0;entryX=1;entryY=0.5;entryDx=0;entryDy=0;fontSize=13;" edge="1" parent="1" source="zbjkyzTDcAnJZQnpiGPw-240" target="zbjkyzTDcAnJZQnpiGPw-239">
          <mxGeometry width="50" height="50" relative="1" as="geometry">
            <mxPoint x="421.62" y="1565" as="sourcePoint" />
            <mxPoint x="611.62" y="1285" as="targetPoint" />
          </mxGeometry>
        </mxCell>
        <mxCell id="zbjkyzTDcAnJZQnpiGPw-242" value="&amp;lt;&amp;lt;extend&amp;gt;&amp;gt;" style="endArrow=open;endSize=12;endFill=0;html=1;rounded=0;exitX=0;exitY=0.5;exitDx=0;exitDy=0;entryX=1;entryY=0.5;entryDx=0;entryDy=0;fontSize=13;" edge="1" parent="1" source="zbjkyzTDcAnJZQnpiGPw-239" target="zbjkyzTDcAnJZQnpiGPw-238">
          <mxGeometry width="160" relative="1" as="geometry">
            <mxPoint x="361.62" y="1523" as="sourcePoint" />
            <mxPoint x="233.62" y="1520" as="targetPoint" />
          </mxGeometry>
        </mxCell>
        <mxCell id="zbjkyzTDcAnJZQnpiGPw-243" value="&amp;lt;&amp;lt;extend&amp;gt;&amp;gt;" style="endArrow=open;endSize=12;endFill=0;html=1;rounded=0;exitX=0;exitY=0.5;exitDx=0;exitDy=0;entryX=1;entryY=0.5;entryDx=0;entryDy=0;fontSize=13;" edge="1" parent="1" source="zbjkyzTDcAnJZQnpiGPw-233" target="zbjkyzTDcAnJZQnpiGPw-238">
          <mxGeometry width="160" relative="1" as="geometry">
            <mxPoint x="361.62" y="1523" as="sourcePoint" />
            <mxPoint x="233.62" y="1520" as="targetPoint" />
          </mxGeometry>
        </mxCell>
        <mxCell id="zbjkyzTDcAnJZQnpiGPw-244" value="TDM04. Detect anomaly occurrence manually" style="ellipse;whiteSpace=wrap;html=1;fontSize=13;" vertex="1" parent="1">
          <mxGeometry x="43.370000000000005" y="1290" width="160" height="50" as="geometry" />
        </mxCell>
        <mxCell id="zbjkyzTDcAnJZQnpiGPw-245" value="TDM05. Make datasets &lt;br style=&quot;font-size: 13px;&quot;&gt;for training" style="ellipse;whiteSpace=wrap;html=1;fontSize=13;" vertex="1" parent="1">
          <mxGeometry x="43.370000000000005" y="1357.5" width="160" height="50" as="geometry" />
        </mxCell>
        <mxCell id="zbjkyzTDcAnJZQnpiGPw-246" value="" style="endArrow=none;html=1;rounded=0;exitX=1;exitY=0.3333333333333333;exitDx=0;exitDy=0;exitPerimeter=0;entryX=0;entryY=0.5;entryDx=0;entryDy=0;fontSize=13;" edge="1" parent="1" source="zbjkyzTDcAnJZQnpiGPw-237" target="zbjkyzTDcAnJZQnpiGPw-238">
          <mxGeometry width="50" height="50" relative="1" as="geometry">
            <mxPoint x="-647.63" y="1518" as="sourcePoint" />
            <mxPoint x="-577.63" y="1443" as="targetPoint" />
          </mxGeometry>
        </mxCell>
        <mxCell id="zbjkyzTDcAnJZQnpiGPw-247" value="" style="endArrow=none;html=1;rounded=0;exitX=1;exitY=0.3333333333333333;exitDx=0;exitDy=0;exitPerimeter=0;entryX=0;entryY=0.5;entryDx=0;entryDy=0;fontSize=13;" edge="1" parent="1" source="zbjkyzTDcAnJZQnpiGPw-237" target="zbjkyzTDcAnJZQnpiGPw-244">
          <mxGeometry width="50" height="50" relative="1" as="geometry">
            <mxPoint x="-47.629999999999995" y="1320" as="sourcePoint" />
            <mxPoint x="53.370000000000005" y="1248" as="targetPoint" />
          </mxGeometry>
        </mxCell>
        <mxCell id="zbjkyzTDcAnJZQnpiGPw-248" value="" style="endArrow=none;html=1;rounded=0;exitX=1;exitY=0.3333333333333333;exitDx=0;exitDy=0;exitPerimeter=0;entryX=0;entryY=0.5;entryDx=0;entryDy=0;fontSize=13;" edge="1" parent="1" source="zbjkyzTDcAnJZQnpiGPw-237" target="zbjkyzTDcAnJZQnpiGPw-245">
          <mxGeometry width="50" height="50" relative="1" as="geometry">
            <mxPoint x="-47.629999999999995" y="1320" as="sourcePoint" />
            <mxPoint x="53.370000000000005" y="1335" as="targetPoint" />
          </mxGeometry>
        </mxCell>
        <mxCell id="zbjkyzTDcAnJZQnpiGPw-249" value="&lt;font color=&quot;#0000ff&quot; style=&quot;font-size: 17px;&quot;&gt;Training Data Manager&lt;/font&gt;" style="text;html=1;strokeColor=none;fillColor=none;align=center;verticalAlign=middle;whiteSpace=wrap;rounded=0;fontStyle=1;fontSize=17;" vertex="1" parent="1">
          <mxGeometry x="70" y="1171" width="310" height="30" as="geometry" />
        </mxCell>
        <mxCell id="zbjkyzTDcAnJZQnpiGPw-251" value="TDM06. Feature selection using RFECV" style="ellipse;whiteSpace=wrap;html=1;fontSize=13;" vertex="1" parent="1">
          <mxGeometry x="43.370000000000005" y="1430" width="160" height="50" as="geometry" />
        </mxCell>
        <mxCell id="zbjkyzTDcAnJZQnpiGPw-252" value="TDM07. Training feature" style="ellipse;whiteSpace=wrap;html=1;fontSize=13;" vertex="1" parent="1">
          <mxGeometry x="320" y="1430" width="160" height="50" as="geometry" />
        </mxCell>
        <mxCell id="zbjkyzTDcAnJZQnpiGPw-253" value="&amp;lt;&amp;lt;extend&amp;gt;&amp;gt;" style="endArrow=open;endSize=12;endFill=0;html=1;rounded=0;exitX=0;exitY=0.5;exitDx=0;exitDy=0;entryX=1;entryY=0.5;entryDx=0;entryDy=0;fontSize=13;" edge="1" parent="1" source="zbjkyzTDcAnJZQnpiGPw-252" target="zbjkyzTDcAnJZQnpiGPw-251">
          <mxGeometry width="160" relative="1" as="geometry">
            <mxPoint x="320" y="1342" as="sourcePoint" />
            <mxPoint x="213" y="1247" as="targetPoint" />
          </mxGeometry>
        </mxCell>
        <mxCell id="zbjkyzTDcAnJZQnpiGPw-254" value="" style="endArrow=none;html=1;rounded=0;entryX=0;entryY=0.5;entryDx=0;entryDy=0;fontSize=13;exitX=1;exitY=0.3333333333333333;exitDx=0;exitDy=0;exitPerimeter=0;" edge="1" parent="1" source="zbjkyzTDcAnJZQnpiGPw-237" target="zbjkyzTDcAnJZQnpiGPw-251">
          <mxGeometry width="50" height="50" relative="1" as="geometry">
            <mxPoint x="-50" y="1310" as="sourcePoint" />
            <mxPoint x="53" y="1392" as="targetPoint" />
          </mxGeometry>
        </mxCell>
        <mxCell id="zbjkyzTDcAnJZQnpiGPw-256" value="" style="rounded=1;whiteSpace=wrap;html=1;fillColor=none;strokeColor=#d79b00;strokeWidth=3;dashed=1;" vertex="1" parent="1">
          <mxGeometry x="30" y="1425" width="460" height="60" as="geometry" />
        </mxCell>
      </root>
    </mxGraphModel>
  </diagram>
</mxfile>
